<?xml version="1.0" standalone="no"?>
<!DOCTYPE svg PUBLIC "-//W3C//DTD SVG 20010904//EN"
 "http://www.w3.org/TR/2001/REC-SVG-20010904/DTD/svg10.dtd">
<svg version="1.0" xmlns="http://www.w3.org/2000/svg"
 width="260.000000pt" height="260.000000pt" viewBox="0 0 260.000000 260.000000"
 preserveAspectRatio="xMidYMid meet">
<metadata>
Created by potrace 1.11, written by Peter Selinger 2001-2013
</metadata>
<g transform="translate(0.000000,260.000000) scale(0.100000,-0.100000)"
fill="#000000" stroke="none">
<path d="M1145 2400 c-159 -18 -345 -86 -482 -177 -204 -134 -369 -368 -433
-611 -66 -249 -40 -504 75 -737 174 -354 497 -571 891 -601 482 -35 951 296
1088 769 42 145 59 333 32 359 -24 24 -29 58 -12 71 15 11 15 18 1 86 -8 40
-18 77 -21 82 -7 12 -31 12 -38 0 -6 -8 14 -118 29 -166 4 -13 1 -11 -8 5 -23
40 -40 149 -27 165 15 18 4 52 -19 58 -11 2 -34 38 -59 88 -47 99 -115 191
-204 278 -347 342 -945 373 -1308 68 -157 -132 -283 -330 -337 -532 -24 -89
-27 -118 -27 -265 0 -146 3 -176 26 -260 78 -289 267 -528 518 -655 132 -67
366 -105 532 -85 427 49 758 329 867 731 21 78 41 215 41 286 0 23 3 44 8 47
15 9 -9 -225 -33 -321 -89 -351 -373 -635 -730 -729 -86 -23 -121 -27 -250
-28 -133 0 -162 3 -260 28 -189 48 -312 115 -448 245 -104 99 -160 176 -218
296 -58 121 -85 218 -99 347 -47 458 241 915 667 1057 518 174 1050 -45 1277
-527 29 -60 51 -77 62 -47 8 19 -43 126 -97 207 -55 81 -176 206 -260 269
-203 151 -492 228 -744 199z m-25 -681 c31 -14 72 -40 92 -58 44 -38 54 -39
93 -2 16 16 55 42 85 58 48 25 66 28 145 28 78 0 97 -4 141 -27 149 -78 219
-253 163 -405 -20 -52 -45 -81 -253 -291 -127 -129 -243 -240 -258 -248 -40
-21 -107 -17 -148 7 -19 12 -131 118 -249 237 -246 248 -271 285 -271 403 0
80 19 139 65 197 72 93 158 134 270 129 50 -2 86 -10 125 -28z"/>
<path d="M883 1722 c-137 -49 -223 -181 -210 -322 9 -108 30 -137 270 -378
122 -123 234 -230 249 -238 35 -18 101 -18 136 0 15 8 126 115 248 238 256
259 269 278 269 403 0 98 -23 153 -90 220 -117 117 -281 125 -424 20 -34 -25
-67 -45 -75 -45 -8 0 -34 16 -58 37 -91 76 -213 102 -315 65z m223 -60 c22
-11 60 -37 83 -56 56 -47 86 -47 142 0 77 64 115 79 204 79 88 0 125 -14 183
-69 73 -68 100 -177 67 -277 -16 -49 -39 -75 -249 -286 l-231 -233 -45 0 -44
0 -224 223 c-123 122 -233 240 -245 262 -29 54 -31 183 -3 235 35 67 95 118
166 141 43 14 152 4 196 -19z"/>
</g>
</svg>
